<?xml version="1.0" encoding="UTF-8"?>
<svg width="48px" height="48px" viewBox="0 0 48 48" version="1.1" xmlns="http://www.w3.org/2000/svg" xmlns:xlink="http://www.w3.org/1999/xlink">
    <!-- Generator: Sketch 50.2 (55047) - http://www.bohemiancoding.com/sketch -->
    <title>attatchment</title>
    <desc>Created with Sketch.</desc>
    <defs></defs>
    <g id="attatchment" stroke="none" stroke-width="1" fill="none" fill-rule="evenodd">
        <path d="M35.7792768,12.2215677 C33.7608727,10.0086353 30.2745385,10.1930464 28.2561344,12.2215677 L11.374937,29.1873827 C9.35653296,31.215904 9.35653296,34.7197137 11.374937,36.748235 C13.393341,38.7767564 16.8796753,38.9611674 18.8980793,36.748235 L29.3570821,26.4212172 C29.9075559,25.8679841 29.9075559,24.9459289 29.3570821,24.3926959 C28.8066083,23.8394628 27.7056606,23.6550517 27.1551868,24.3926959 L20.5495008,30.847082 C19.6320444,31.7691371 18.3476055,31.7691371 17.4301491,30.847082 C16.5126927,29.9250268 16.5126927,28.4497386 17.4301491,27.5276834 L23.8523438,21.0732973 C26.2377304,18.6759539 30.0910472,18.6759539 32.4764338,21.0732973 C34.8618204,23.4706407 34.8618204,27.3432724 32.4764338,29.7406158 L22.2009223,40.0676336 C18.3476055,43.9402653 12.1089021,43.9402653 8.07209403,40.0676336 C4.21877722,36.1950019 4.21877722,29.9250268 8.07209403,26.0523951 L24.9532915,9.08658018 C28.8066083,5.21394851 35.2288029,5.21394851 39.0821197,9.08658018 C42.9354365,12.9592119 42.9354365,19.2291869 39.0821197,23.1018186 L38.359692,25.0866725 C38.2373645,23.9802063 37.5524558,22.3120162 36.304966,20.0821022 C38.32337,17.8691698 37.7976808,14.4345001 35.7792768,12.2215677 Z" id="Shape" fill="#3E70AB" fill-rule="nonzero" transform="translate(23.577107, 24.577107) rotate(-20.000000) translate(-23.577107, -24.577107) "></path>
        <path d="M36.7792768,12.2215677 C34.7608727,10.0086353 31.2745385,10.1930464 29.2561344,12.2215677 L12.374937,29.1873827 C10.356533,31.215904 10.356533,34.7197137 12.374937,36.748235 C14.393341,38.7767564 17.8796753,38.9611674 19.8980793,36.748235 L30.3570821,26.4212172 C30.9075559,25.8679841 30.9075559,24.9459289 30.3570821,24.3926959 C29.8066083,23.8394628 28.7056606,23.6550517 28.1551868,24.3926959 L21.5495008,30.847082 C20.6320444,31.7691371 19.3476055,31.7691371 18.4301491,30.847082 C17.5126927,29.9250268 17.5126927,28.4497386 18.4301491,27.5276834 L24.8523438,21.0732973 C27.2377304,18.6759539 31.0910472,18.6759539 33.4764338,21.0732973 C35.8618204,23.4706407 35.8618204,27.3432724 33.4764338,29.7406158 L23.2009223,40.0676336 C19.3476055,43.9402653 13.1089021,43.9402653 9.07209403,40.0676336 C5.21877722,36.1950019 5.21877722,29.9250268 9.07209403,26.0523951 L25.9532915,9.08658018 C29.8066083,5.21394851 36.2288029,5.21394851 40.0821197,9.08658018 C43.9354365,12.9592119 43.9354365,19.2291869 40.0821197,23.1018186 L38.4306982,24.7615179 C38.1582908,23.5852204 37.9026384,21.363815 36.5957855,19.9668311 L36.7792768,19.9668311 C38.7976808,17.7538987 38.7976808,14.4345001 36.7792768,12.2215677 Z" id="Shape" fill="#4A90E2" fill-rule="nonzero" transform="translate(24.577107, 24.577107) rotate(-20.000000) translate(-24.577107, -24.577107) "></path>
    </g>
</svg>